<svg width="20" height="20" viewBox="0 0 20 20" class="text-success-600 focus:outline-none" xmlns="http://www.w3.org/2000/svg">
    <path fill-rule="evenodd" clip-rule="evenodd" d="M10.0013 16.6666C13.6832 16.6666 16.668 13.6819 16.668 9.99996C16.668 6.31806 13.6832 3.33329 10.0013 3.33329C6.3194 3.33329 3.33464 6.31806 3.33464 9.99996C3.33464 13.6819 6.3194 16.6666 10.0013 16.6666ZM10.0013 18.3333C14.6037 18.3333 18.3346 14.6023 18.3346 9.99996C18.3346 5.39759 14.6037 1.66663 10.0013 1.66663C5.39893 1.66663 1.66797 5.39759 1.66797 9.99996C1.66797 14.6023 5.39893 18.3333 10.0013 18.3333Z" fill="currentColor"/>
    <path fill-rule="evenodd" clip-rule="evenodd" d="M13.9239 7.74404C14.2493 8.06947 14.2493 8.59711 13.9239 8.92255L9.34645 13.5C9.01776 13.8287 8.48485 13.8287 8.15615 13.5L6.07871 11.4225C5.75328 11.0971 5.75328 10.5695 6.07871 10.244C6.40415 9.9186 6.93179 9.9186 7.25722 10.244L8.7513 11.7381L12.7454 7.74404C13.0708 7.4186 13.5985 7.4186 13.9239 7.74404Z" fill="currentColor"/>
</svg>
