<svg width="24" height="24" viewBox="0 0 24 24" class="neutral-700 focus:outline-none" xmlns="http://www.w3.org/2000/svg">
<g id="Icons/close">
<path id="Vector" d="M17.3 15.8C17.7 16.2 17.7 16.8 17.3 17.1C17.1 17.3 16.9 17.4 16.6 17.4C16.3 17.4 16.1 17.3 15.9 17.1L11.8 13L7.7 17.1C7.3 17.5 6.7 17.5 6.4 17.1C6 16.7 6 16.1 6.4 15.8L10.5 11.7L6.3 7.6C5.9 7.2 5.9 6.6 6.3 6.3C6.7 5.9 7.3 5.9 7.6 6.3L11.7 10.4L15.8 6.3C16.2 5.9 16.8 5.9 17.1 6.3C17.5 6.7 17.5 7.3 17.1 7.6L13.1 11.7L17.3 15.8Z" fill="currentColor"/>
</g>
</svg>
