<svg width="14" height="12" class="text-300 focus:outline-none" viewBox="0 0 14 12" xmlns="http://www.w3.org/2000/svg">
<path d="M11.029 11.8247C10.2113 11.8247 9.27677 11.1238 9.27677 11.1238C9.27677 11.1238 9.15996 11.0654 8.98474 10.9486C8.28386 10.4814 6.76529 9.48846 6.12282 8.9628C5.83078 8.72918 5.65556 8.37874 5.65556 8.0283C5.65556 7.79467 5.71397 7.44423 6.12282 7.09379C6.41485 6.80176 6.76529 6.50973 7.05732 6.21769L4.89628 7.67786C4.77946 7.73627 4.13699 8.14511 2.96886 7.79467C2.03436 7.50264 0.983037 7.1522 0.92463 7.1522L0.807817 7.09379C0.574191 6.91857 0.282158 6.62654 0.340564 6.15929C0.398971 5.45841 1.15826 5.16638 1.45029 5.04956L8.69271 2.07083C9.39358 1.77879 11.8467 0.785882 11.8467 0.785882C12.0219 0.727476 12.7228 0.493849 13.2484 0.902695C13.482 1.07792 13.7157 1.42835 13.6573 2.01242C13.6573 2.36286 13.482 3.18055 13.3068 4.34868L13.1316 5.57522L12.3723 10.4814C12.3139 10.8902 12.0803 11.6495 11.321 11.8247C11.2042 11.8247 11.1458 11.8247 11.029 11.8247ZM6.82369 7.96989C6.82369 8.0283 6.82369 8.0283 6.82369 7.96989C7.46617 8.49555 8.98474 9.48846 9.62721 9.89731C9.86084 10.0141 9.97765 10.1309 9.97765 10.1309C10.2113 10.3062 10.8537 10.6566 11.029 10.5982C11.0874 10.5982 11.1458 10.423 11.1458 10.2477L12.1387 3.99824C12.3139 2.94693 12.4307 2.07083 12.4307 1.77879C12.4307 1.72039 12.4307 1.72039 12.4307 1.72039C12.3723 1.72039 12.2555 1.72039 12.1971 1.77879C12.1971 1.77879 9.80243 2.77171 9.04315 3.06374L1.85914 6.10088C1.85914 6.10088 1.80073 6.10088 1.80073 6.15929C2.20958 6.2761 2.79364 6.50973 3.3193 6.62654C3.96177 6.80176 4.25381 6.62654 4.31221 6.62654L8.69271 3.70621C9.21836 3.35577 10.0945 2.77171 10.5617 3.35577C10.9706 3.82302 10.5033 4.4655 10.2113 4.81594C9.39358 5.63363 8.05023 6.91857 6.94051 7.96989C6.8821 7.96989 6.82369 7.96989 6.82369 7.96989Z" fill="currentColor"/>
</svg>
