<svg width="10" height="6" viewBox="0 0 10 6" class="text-neutral-700 focus:outline-none" xmlns="http://www.w3.org/2000/svg">
    <path d="M9.61683 1.00016C9.61683 1.20016 9.55016 1.3335 9.41683 1.46683L5.41683 5.46683C5.2835 5.5335 5.15016 5.66683 4.95016 5.66683C4.75016 5.66683 4.61683 5.60016 4.4835 5.46683L0.483496 1.46683C0.283496 1.20016 0.283496 0.800163 0.483496 0.533496C0.683496 0.26683 1.15016 0.26683 1.35016 0.533496L4.8835 4.06683L8.41683 0.533496C8.61683 0.46683 8.81683 0.333496 8.95016 0.333496C9.0835 0.333496 9.2835 0.400163 9.41683 0.533496C9.55016 0.66683 9.61683 0.866829 9.61683 1.00016Z" fill="currentColor"/>
</svg>
