<svg width="16" height="16" viewBox="0 0 16 16" xmlns="http://www.w3.org/2000/svg">
<g id="Icons/arrow-right">
<path id="Vector" d="M12.5997 8.66665L8.53301 12.7333C8.39967 12.8666 8.26634 12.9333 8.06634 12.9333C7.86634 12.9333 7.73301 12.8666 7.59967 12.7333C7.33301 12.4666 7.33301 12.0666 7.59967 11.8L10.5997 8.79998H3.99967C3.66634 8.79998 3.33301 8.53331 3.33301 8.13331C3.33301 7.73331 3.59967 7.46665 3.99967 7.46665H10.5997L7.59967 4.46665C7.33301 4.19998 7.33301 3.79998 7.59967 3.53331C7.86634 3.26665 8.26634 3.26665 8.53301 3.53331L12.5997 7.59998C12.8663 7.99998 12.8663 8.39998 12.5997 8.66665Z" fill="currentColor"/>
</g>
</svg>
