<svg width="20" height="20" viewBox="0 0 20 20" class="text-accent-1" xmlns="http://www.w3.org/2000/svg">
    <path fill-rule="evenodd" clip-rule="evenodd" d="M5.8756 2.5418C6.96956 1.44783 8.45329 0.833252 10.0004 0.833252C11.5475 0.833252 13.0312 1.44783 14.1252 2.5418C15.2191 3.63576 15.8337 5.11949 15.8337 6.66658C15.8337 9.46047 16.4313 11.1954 16.982 12.205C17.2585 12.7119 17.5277 13.0445 17.7147 13.2419C17.8085 13.3408 17.8821 13.4064 17.9265 13.4434C17.9486 13.4619 17.9635 13.4732 17.9699 13.478C17.9709 13.4787 17.9717 13.4793 17.9723 13.4798C18.2711 13.685 18.4033 14.0603 18.298 14.4081C18.1916 14.7595 17.8676 14.9999 17.5004 14.9999H2.50039C2.13317 14.9999 1.80923 14.7595 1.70281 14.4081C1.59753 14.0603 1.72973 13.685 2.02847 13.4798C2.02905 13.4793 2.02985 13.4787 2.03085 13.478C2.03726 13.4732 2.05214 13.4619 2.07433 13.4434C2.11867 13.4064 2.19233 13.3408 2.28605 13.2419C2.47308 13.0445 2.74232 12.7119 3.01881 12.205C3.5695 11.1954 4.16706 9.46047 4.16706 6.66658C4.16706 5.11949 4.78164 3.63576 5.8756 2.5418ZM4.29149 13.3333H15.7093C15.6459 13.2294 15.5822 13.1194 15.5188 13.0031C14.8195 11.7211 14.1671 9.70603 14.1671 6.66658C14.1671 5.56152 13.7281 4.50171 12.9467 3.72031C12.1653 2.93891 11.1055 2.49992 10.0004 2.49992C8.89532 2.49992 7.83551 2.93891 7.05411 3.72031C6.27271 4.50171 5.83372 5.56152 5.83372 6.66658C5.83372 9.70603 5.18128 11.7211 4.48197 13.0031C4.41856 13.1194 4.3549 13.2294 4.29149 13.3333Z" fill="currentColor"/>
    <path fill-rule="evenodd" clip-rule="evenodd" d="M8.24512 16.9593C8.5437 16.7861 8.92615 16.8877 9.09935 17.1863C9.19092 17.3442 9.32235 17.4752 9.48048 17.5663C9.63861 17.6574 9.8179 17.7053 10.0004 17.7053C10.1829 17.7053 10.3622 17.6574 10.5203 17.5663C10.6784 17.4752 10.8099 17.3442 10.9014 17.1863C11.0746 16.8877 11.4571 16.7861 11.7557 16.9593C12.0542 17.1325 12.1559 17.5149 11.9827 17.8135C11.7812 18.1608 11.4921 18.4491 11.1442 18.6494C10.7963 18.8498 10.4019 18.9553 10.0004 18.9553C9.59891 18.9553 9.20448 18.8498 8.85659 18.6494C8.5087 18.4491 8.21955 18.1608 8.0181 17.8135C7.8449 17.5149 7.94654 17.1325 8.24512 16.9593Z" fill="currentColor"/>
</svg>
