<svg width="156" height="23" viewBox="0 0 156 23" class="text-500 focus:outline-none" xmlns="http://www.w3.org/2000/svg">
    <g id="docmed.space">
        <path d="M2.97899 12.2778C2.97899 13.5543 3.28329 14.5595 3.8919 15.2934C4.50051 16.0114 5.34135 16.3704 6.41443 16.3704C6.8789 16.3704 7.27129 16.3545 7.59161 16.3226C7.92795 16.2747 8.20022 16.2268 8.40843 16.179V8.99896C8.15217 8.82345 7.80783 8.66389 7.37539 8.52029C6.95898 8.36074 6.51053 8.28096 6.03005 8.28096C4.97299 8.28096 4.19621 8.63996 3.69971 9.35796C3.21923 10.076 2.97899 11.0493 2.97899 12.2778ZM11.3153 18.1894C10.7388 18.3649 10.01 18.5245 9.12915 18.6681C8.26428 18.8117 7.35137 18.8835 6.39041 18.8835C5.39741 18.8835 4.50852 18.7319 3.72373 18.4287C2.93895 18.1256 2.26627 17.6948 1.70571 17.1363C1.16116 16.5619 0.736739 15.8758 0.432434 15.078C0.144145 14.2643 0 13.3548 0 12.3496C0 11.3604 0.120121 10.4669 0.360361 9.6691C0.616618 8.85536 0.984988 8.16129 1.46547 7.58689C1.94595 7.01249 2.53054 6.57371 3.21923 6.27055C3.90792 5.95144 4.70071 5.79188 5.59761 5.79188C6.20622 5.79188 6.74276 5.86368 7.20722 6.00728C7.67169 6.15088 8.07209 6.31044 8.40843 6.48595V0.478668L11.3153 0V18.1894Z" fill="currentColor"/>
        <path d="M26.3713 12.3018C26.3713 13.291 26.2272 14.1925 25.9389 15.0062C25.6506 15.82 25.2422 16.514 24.7136 17.0884C24.1851 17.6628 23.5445 18.1096 22.7917 18.4287C22.055 18.7478 21.2382 18.9074 20.3413 18.9074C19.4444 18.9074 18.6275 18.7478 17.8908 18.4287C17.1541 18.1096 16.5214 17.6628 15.9929 17.0884C15.4644 16.514 15.048 15.82 14.7437 15.0062C14.4554 14.1925 14.3112 13.291 14.3112 12.3018C14.3112 11.3125 14.4554 10.419 14.7437 9.62123C15.048 8.80749 15.4644 8.11342 15.9929 7.53902C16.5375 6.96462 17.1781 6.52584 17.9148 6.22268C18.6516 5.90357 19.4604 5.74402 20.3413 5.74402C21.2221 5.74402 22.031 5.90357 22.7677 6.22268C23.5205 6.52584 24.1611 6.96462 24.6896 7.53902C25.2182 8.11342 25.6266 8.80749 25.9149 9.62123C26.2192 10.419 26.3713 11.3125 26.3713 12.3018ZM23.3923 12.3018C23.3923 11.0572 23.1201 10.076 22.5755 9.35796C22.047 8.624 21.3022 8.25702 20.3413 8.25702C19.3803 8.25702 18.6275 8.624 18.083 9.35796C17.5545 10.076 17.2902 11.0572 17.2902 12.3018C17.2902 13.5623 17.5545 14.5595 18.083 15.2934C18.6275 16.0274 19.3803 16.3944 20.3413 16.3944C21.3022 16.3944 22.047 16.0274 22.5755 15.2934C23.1201 14.5595 23.3923 13.5623 23.3923 12.3018Z" fill="currentColor"/>
        <path d="M28.6694 12.3257C28.6694 11.4003 28.8135 10.5387 29.1018 9.74089C29.3901 8.92716 29.7985 8.22511 30.327 7.63476C30.8716 7.0444 31.5282 6.58169 32.297 6.24662C33.0658 5.91155 33.9306 5.74402 34.8916 5.74402C36.0768 5.74402 37.1979 5.95942 38.255 6.39022L37.6303 8.75963C37.294 8.61602 36.9096 8.49636 36.4772 8.40062C36.0608 8.30489 35.6123 8.25702 35.1318 8.25702C33.9947 8.25702 33.1298 8.61602 32.5372 9.33403C31.9446 10.0361 31.6483 11.0333 31.6483 12.3257C31.6483 13.5702 31.9286 14.5595 32.4892 15.2934C33.0498 16.0114 33.9947 16.3704 35.324 16.3704C35.8205 16.3704 36.309 16.3226 36.7895 16.2268C37.27 16.1311 37.6864 16.0114 38.0388 15.8678L38.4472 18.2612C38.1268 18.4207 37.6384 18.5643 36.9817 18.692C36.3411 18.8196 35.6764 18.8835 34.9877 18.8835C33.9146 18.8835 32.9777 18.7239 32.1769 18.4048C31.3921 18.0697 30.7354 17.615 30.2069 17.0406C29.6944 16.4502 29.31 15.7562 29.0537 14.9584C28.7975 14.1446 28.6694 13.2671 28.6694 12.3257Z" fill="currentColor"/>
        <path d="M47.8569 11.9906C47.8569 10.6823 47.6887 9.74089 47.3524 9.16649C47.0321 8.57614 46.4235 8.28096 45.5266 8.28096C45.2063 8.28096 44.8539 8.30489 44.4695 8.35276C44.0851 8.40062 43.7968 8.44051 43.6046 8.47242V18.5723H40.6977V6.46202C41.2583 6.30246 41.987 6.15088 42.8839 6.00728C43.7968 5.86368 44.7578 5.79188 45.7668 5.79188C46.6317 5.79188 47.3364 5.90357 47.8809 6.12695C48.4415 6.35033 48.906 6.64551 49.2743 7.01249C49.4505 6.88484 49.6747 6.74922 49.947 6.60562C50.2193 6.46202 50.5236 6.33437 50.8599 6.22268C51.1963 6.09504 51.5486 5.99133 51.917 5.91155C52.3014 5.83177 52.6857 5.79188 53.0701 5.79188C54.0471 5.79188 54.8479 5.93548 55.4725 6.22268C56.1132 6.49393 56.6097 6.88484 56.962 7.39542C57.3304 7.89004 57.5787 8.49636 57.7068 9.21436C57.8509 9.91641 57.923 10.6903 57.923 11.5359V18.5723H55.0161V11.9906C55.0161 10.6823 54.8559 9.74089 54.5356 9.16649C54.2153 8.57614 53.5987 8.28096 52.6857 8.28096C52.2213 8.28096 51.7808 8.36074 51.3644 8.52029C50.948 8.66389 50.6357 8.80749 50.4275 8.95109C50.5556 9.34998 50.6437 9.77281 50.6917 10.2196C50.7398 10.6663 50.7638 11.145 50.7638 11.6556V18.5723H47.8569V11.9906Z" fill="currentColor"/>
        <path d="M60.7875 12.3736C60.7875 11.2726 60.9477 10.3073 61.268 9.47763C61.6043 8.64794 62.0448 7.96185 62.5893 7.41935C63.1338 6.86091 63.7585 6.44606 64.4632 6.17482C65.1679 5.88762 65.8886 5.74402 66.6253 5.74402C68.3551 5.74402 69.7004 6.27853 70.6614 7.34755C71.6384 8.41658 72.1269 10.0121 72.1269 12.1342C72.1269 12.2938 72.1189 12.4773 72.1028 12.6847C72.1028 12.8762 72.0948 13.0517 72.0788 13.2112H63.7905C63.8706 14.2164 64.2229 14.9983 64.8476 15.5567C65.4882 16.0992 66.4091 16.3704 67.6103 16.3704C68.315 16.3704 68.9557 16.3066 69.5323 16.179C70.1249 16.0513 70.5893 15.9157 70.9257 15.7721L71.31 18.1415C71.1499 18.2213 70.9257 18.3091 70.6374 18.4048C70.3651 18.4846 70.0448 18.5564 69.6764 18.6202C69.3241 18.7 68.9397 18.7638 68.5232 18.8117C68.1068 18.8595 67.6824 18.8835 67.25 18.8835C66.1449 18.8835 65.1839 18.7239 64.3671 18.4048C63.5503 18.0697 62.8776 17.615 62.3491 17.0406C61.8205 16.4502 61.4281 15.7641 61.1719 14.9823C60.9156 14.1845 60.7875 13.3149 60.7875 12.3736ZM69.2199 11.0812C69.2199 10.6823 69.1639 10.3073 69.0518 9.9563C68.9397 9.58932 68.7715 9.27818 68.5473 9.02289C68.3391 8.75165 68.0748 8.54422 67.7545 8.40062C67.4502 8.24107 67.0818 8.16129 66.6494 8.16129C66.2009 8.16129 65.8085 8.24905 65.4722 8.42456C65.1359 8.58411 64.8476 8.79951 64.6073 9.07076C64.3831 9.342 64.2069 9.65314 64.0788 10.0042C63.9507 10.3552 63.8626 10.7142 63.8145 11.0812H69.2199Z" fill="currentColor"/>
        <path d="M77.4912 12.2778C77.4912 13.5543 77.7955 14.5595 78.4041 15.2934C79.0127 16.0114 79.8535 16.3704 80.9266 16.3704C81.3911 16.3704 81.7835 16.3545 82.1038 16.3226C82.4401 16.2747 82.7124 16.2268 82.9206 16.179V8.99896C82.6644 8.82345 82.32 8.66389 81.8876 8.52029C81.4712 8.36074 81.0227 8.28096 80.5422 8.28096C79.4852 8.28096 78.7084 8.63996 78.2119 9.35796C77.7314 10.076 77.4912 11.0493 77.4912 12.2778ZM85.8275 18.1894C85.251 18.3649 84.5222 18.5245 83.6413 18.6681C82.7765 18.8117 81.8636 18.8835 80.9026 18.8835C79.9096 18.8835 79.0207 18.7319 78.2359 18.4287C77.4511 18.1256 76.7785 17.6948 76.2179 17.1363C75.6734 16.5619 75.2489 15.8758 74.9446 15.078C74.6563 14.2643 74.5122 13.3548 74.5122 12.3496C74.5122 11.3604 74.6323 10.4669 74.8726 9.6691C75.1288 8.85536 75.4972 8.16129 75.9777 7.58689C76.4581 7.01249 77.0427 6.57371 77.7314 6.27055C78.4201 5.95144 79.2129 5.79188 80.1098 5.79188C80.7184 5.79188 81.2549 5.86368 81.7194 6.00728C82.1839 6.15088 82.5843 6.31044 82.9206 6.48595V0.478668L85.8275 0V18.1894Z" fill="currentColor"/>
        <path d="M92.7874 16.9927C92.7874 17.5512 92.5952 18.0059 92.2108 18.3569C91.8424 18.7079 91.394 18.8835 90.8655 18.8835C90.3209 18.8835 89.8644 18.7079 89.4961 18.3569C89.1277 18.0059 88.9435 17.5512 88.9435 16.9927C88.9435 16.4343 89.1277 15.9795 89.4961 15.6285C89.8644 15.2615 90.3209 15.078 90.8655 15.078C91.394 15.078 91.8424 15.2615 92.2108 15.6285C92.5952 15.9795 92.7874 16.4343 92.7874 16.9927Z" fill="currentColor"/>
        <path d="M99.0487 16.4901C99.8174 16.4901 100.378 16.4024 100.73 16.2268C101.083 16.0354 101.259 15.7163 101.259 15.2695C101.259 14.8547 101.067 14.5116 100.682 14.2404C100.314 13.9691 99.6973 13.674 98.8324 13.3548C98.3039 13.1634 97.8154 12.9639 97.367 12.7565C96.9345 12.5331 96.5582 12.2778 96.2378 11.9906C95.9175 11.7034 95.6613 11.3604 95.4691 10.9615C95.2929 10.5467 95.2048 10.0441 95.2048 9.45369C95.2048 8.30489 95.6292 7.4034 96.4781 6.74922C97.3269 6.07908 98.4801 5.74402 99.9375 5.74402C100.674 5.74402 101.379 5.81582 102.052 5.95942C102.724 6.08706 103.229 6.21471 103.565 6.34235L103.037 8.68782C102.716 8.54422 102.308 8.41658 101.811 8.30489C101.315 8.17725 100.738 8.11342 100.082 8.11342C99.4891 8.11342 99.0086 8.21713 98.6403 8.42456C98.2719 8.61602 98.0877 8.91918 98.0877 9.33403C98.0877 9.54145 98.1197 9.72494 98.1838 9.8845C98.2639 10.0441 98.392 10.1956 98.5682 10.3392C98.7444 10.4669 98.9766 10.6025 99.2649 10.7461C99.5532 10.8737 99.9055 11.0094 100.322 11.153C101.011 11.4083 101.595 11.6635 102.076 11.9188C102.556 12.1582 102.949 12.4374 103.253 12.7565C103.573 13.0597 103.805 13.4107 103.95 13.8096C104.094 14.2085 104.166 14.6871 104.166 15.2456C104.166 16.4422 103.717 17.3517 102.82 17.974C101.94 18.5803 100.674 18.8835 99.0246 18.8835C97.9195 18.8835 97.0306 18.7877 96.358 18.5963C95.6853 18.4207 95.2128 18.2771 94.9405 18.1655L95.445 15.7482C95.8775 15.9237 96.39 16.0912 96.9826 16.2508C97.5912 16.4103 98.2799 16.4901 99.0487 16.4901Z" fill="currentColor"/>
        <path d="M115.218 12.3736C115.218 11.0812 114.921 10.076 114.329 9.35796C113.752 8.63996 112.815 8.28096 111.518 8.28096C111.246 8.28096 110.957 8.29691 110.653 8.32882C110.365 8.34478 110.076 8.39265 109.788 8.47242V15.6285C110.044 15.804 110.381 15.9716 110.797 16.1311C111.23 16.2747 111.686 16.3465 112.167 16.3465C113.224 16.3465 113.992 15.9875 114.473 15.2695C114.969 14.5515 115.218 13.5862 115.218 12.3736ZM118.197 12.3257C118.197 13.283 118.068 14.1606 117.812 14.9584C117.572 15.7562 117.22 16.4422 116.755 17.0166C116.291 17.5911 115.706 18.0378 115.001 18.3569C114.313 18.676 113.528 18.8356 112.647 18.8356C112.054 18.8356 111.51 18.7638 111.013 18.6202C110.517 18.4766 110.108 18.317 109.788 18.1415V23H106.881V6.46202C107.474 6.30246 108.203 6.15088 109.067 6.00728C109.932 5.86368 110.845 5.79188 111.806 5.79188C112.799 5.79188 113.688 5.94346 114.473 6.24662C115.258 6.54977 115.922 6.98855 116.467 7.56296C117.027 8.1214 117.452 8.80749 117.74 9.62123C118.044 10.419 118.197 11.3205 118.197 12.3257Z" fill="currentColor"/>
        <path d="M125.613 16.538C126.51 16.538 127.19 16.4901 127.655 16.3944V13.1873C127.495 13.1394 127.263 13.0916 126.958 13.0437C126.654 12.9958 126.318 12.9719 125.949 12.9719C125.629 12.9719 125.301 12.9958 124.964 13.0437C124.644 13.0916 124.348 13.1793 124.075 13.307C123.819 13.4346 123.611 13.6181 123.451 13.8574C123.291 14.0808 123.211 14.368 123.211 14.719C123.211 15.4051 123.427 15.8838 123.859 16.155C124.292 16.4103 124.876 16.538 125.613 16.538ZM125.373 5.74402C126.334 5.74402 127.142 5.86368 127.799 6.10302C128.456 6.34235 128.976 6.67742 129.361 7.10822C129.761 7.53902 130.041 8.06556 130.202 8.68782C130.378 9.29414 130.466 9.96427 130.466 10.6982V18.2851C130.017 18.3809 129.337 18.4925 128.424 18.6202C127.527 18.7638 126.51 18.8356 125.373 18.8356C124.62 18.8356 123.931 18.7638 123.307 18.6202C122.682 18.4766 122.145 18.2452 121.697 17.9261C121.265 17.607 120.92 17.1922 120.664 16.6816C120.424 16.171 120.304 15.5408 120.304 14.7908C120.304 14.0728 120.44 13.4665 120.712 12.9719C121 12.4773 121.385 12.0784 121.865 11.7752C122.346 11.4561 122.898 11.2327 123.523 11.1051C124.163 10.9615 124.828 10.8897 125.517 10.8897C125.837 10.8897 126.173 10.9136 126.526 10.9615C126.878 10.9934 127.255 11.0572 127.655 11.153V10.6743C127.655 10.3392 127.615 10.0201 127.535 9.71696C127.455 9.4138 127.311 9.15054 127.102 8.92716C126.91 8.68782 126.646 8.50434 126.31 8.37669C125.989 8.24905 125.581 8.18522 125.084 8.18522C124.412 8.18522 123.795 8.23309 123.235 8.32882C122.674 8.42456 122.218 8.53625 121.865 8.66389L121.505 6.31842C121.873 6.19077 122.41 6.06313 123.114 5.93548C123.819 5.80784 124.572 5.74402 125.373 5.74402Z" fill="currentColor"/>
        <path d="M133.329 12.3257C133.329 11.4003 133.473 10.5387 133.761 9.74089C134.05 8.92716 134.458 8.22511 134.987 7.63476C135.531 7.0444 136.188 6.58169 136.957 6.24662C137.725 5.91155 138.59 5.74402 139.551 5.74402C140.736 5.74402 141.858 5.95942 142.915 6.39022L142.29 8.75963C141.954 8.61602 141.569 8.49636 141.137 8.40062C140.72 8.30489 140.272 8.25702 139.791 8.25702C138.654 8.25702 137.789 8.61602 137.197 9.33403C136.604 10.0361 136.308 11.0333 136.308 12.3257C136.308 13.5702 136.588 14.5595 137.149 15.2934C137.709 16.0114 138.654 16.3704 139.984 16.3704C140.48 16.3704 140.969 16.3226 141.449 16.2268C141.93 16.1311 142.346 16.0114 142.698 15.8678L143.107 18.2612C142.786 18.4207 142.298 18.5643 141.641 18.692C141.001 18.8196 140.336 18.8835 139.647 18.8835C138.574 18.8835 137.637 18.7239 136.836 18.4048C136.052 18.0697 135.395 17.615 134.867 17.0406C134.354 16.4502 133.97 15.7562 133.713 14.9584C133.457 14.1446 133.329 13.2671 133.329 12.3257Z" fill="currentColor"/>
        <path d="M144.661 12.3736C144.661 11.2726 144.821 10.3073 145.141 9.47763C145.477 8.64794 145.918 7.96185 146.462 7.41935C147.007 6.86091 147.632 6.44606 148.336 6.17482C149.041 5.88762 149.762 5.74402 150.498 5.74402C152.228 5.74402 153.574 6.27853 154.535 7.34755C155.512 8.41658 156 10.0121 156 12.1342C156 12.2938 155.992 12.4773 155.976 12.6847C155.976 12.8762 155.968 13.0517 155.952 13.2112H147.664C147.744 14.2164 148.096 14.9983 148.721 15.5567C149.361 16.0992 150.282 16.3704 151.483 16.3704C152.188 16.3704 152.829 16.3066 153.405 16.179C153.998 16.0513 154.462 15.9157 154.799 15.7721L155.183 18.1415C155.023 18.2213 154.799 18.3091 154.511 18.4048C154.238 18.4846 153.918 18.5564 153.55 18.6202C153.197 18.7 152.813 18.7638 152.396 18.8117C151.98 18.8595 151.556 18.8835 151.123 18.8835C150.018 18.8835 149.057 18.7239 148.24 18.4048C147.423 18.0697 146.751 17.615 146.222 17.0406C145.694 16.4502 145.301 15.7641 145.045 14.9823C144.789 14.1845 144.661 13.3149 144.661 12.3736ZM153.093 11.0812C153.093 10.6823 153.037 10.3073 152.925 9.9563C152.813 9.58932 152.645 9.27818 152.42 9.02289C152.212 8.75165 151.948 8.54422 151.628 8.40062C151.323 8.24107 150.955 8.16129 150.523 8.16129C150.074 8.16129 149.682 8.24905 149.345 8.42456C149.009 8.58411 148.721 8.79951 148.48 9.07076C148.256 9.342 148.08 9.65314 147.952 10.0042C147.824 10.3552 147.736 10.7142 147.688 11.0812H153.093Z" fill="currentColor"/>
    </g>
</svg>
