<svg width="19" height="18" viewBox="0 0 19 18" fill="none" xmlns="http://www.w3.org/2000/svg">
<g id="Icons/Event">
<g id="Vector">
<path d="M12.667 9H6.66699C6.21699 9 5.91699 9.3 5.91699 9.75C5.91699 10.2 6.21699 10.5 6.66699 10.5H12.667C13.117 10.5 13.417 10.2 13.417 9.75C13.417 9.3 13.117 9 12.667 9Z" fill="currentColor"/>
<path d="M15.967 3.45C15.667 3.15 15.292 3 14.917 3H14.167V2.25C14.167 1.8 13.867 1.5 13.417 1.5C12.967 1.5 12.667 1.8 12.667 2.25V3H6.66699V2.25C6.66699 1.8 6.36699 1.5 5.91699 1.5C5.46699 1.5 5.16699 1.8 5.16699 2.25V3H4.41699C4.04199 3 3.66699 3.15 3.36699 3.45C3.06699 3.75 2.91699 4.125 2.91699 4.5V15C2.91699 15.375 3.06699 15.75 3.36699 16.05C3.66699 16.35 4.04199 16.5 4.41699 16.5H14.917C15.292 16.5 15.667 16.35 15.967 16.05C16.267 15.75 16.417 15.375 16.417 15V4.5C16.417 4.125 16.267 3.75 15.967 3.45ZM14.917 14.55C14.917 14.775 14.692 15 14.467 15H4.86699C4.64199 15 4.41699 14.775 4.41699 14.55V7.875C4.41699 7.725 4.64199 7.5 4.86699 7.5H14.542C14.767 7.5 14.992 7.725 14.992 7.95V14.55H14.917ZM14.917 5.775C14.917 5.925 14.842 6 14.692 6H4.64199C4.49199 6 4.41699 5.925 4.41699 5.775V4.725C4.41699 4.575 4.49199 4.5 4.64199 4.5H14.692C14.842 4.5 14.917 4.575 14.917 4.725V5.775Z" fill="currentColor"/>
<path d="M10.417 12H6.66699C6.21699 12 5.91699 12.3 5.91699 12.75C5.91699 13.2 6.21699 13.5 6.66699 13.5H10.417C10.867 13.5 11.167 13.2 11.167 12.75C11.167 12.3 10.867 12 10.417 12Z" fill="currentColor"/>
</g>
</g>
</svg>
