<svg width="18" height="18" viewBox="0 0 18 18" fill="none" xmlns="http://www.w3.org/2000/svg">
<g id="Icons/list">
<g id="Vector">
<path fill-rule="evenodd" clip-rule="evenodd" d="M5.83594 4.96875C5.83594 4.52002 6.2137 4.15625 6.67969 4.15625H14.9062C15.3722 4.15625 15.75 4.52002 15.75 4.96875C15.75 5.41748 15.3722 5.78125 14.9062 5.78125H6.67969C6.2137 5.78125 5.83594 5.41748 5.83594 4.96875Z" fill="currentColor"/>
<path fill-rule="evenodd" clip-rule="evenodd" d="M5.83594 8.625C5.83594 8.17627 6.2137 7.8125 6.67969 7.8125H14.9062C15.3722 7.8125 15.75 8.17627 15.75 8.625C15.75 9.07373 15.3722 9.4375 14.9062 9.4375H6.67969C6.2137 9.4375 5.83594 9.07373 5.83594 8.625Z" fill="currentColor"/>
<path fill-rule="evenodd" clip-rule="evenodd" d="M5.83594 12.2812C5.83594 11.8325 6.2137 11.4688 6.67969 11.4688H14.9062C15.3722 11.4688 15.75 11.8325 15.75 12.2812C15.75 12.73 15.3722 13.0938 14.9062 13.0938H6.67969C6.2137 13.0938 5.83594 12.73 5.83594 12.2812Z" fill="currentColor"/>
<path fill-rule="evenodd" clip-rule="evenodd" d="M2.25 4.96875C2.25 4.29565 2.81664 3.75 3.51562 3.75H3.52195C4.22094 3.75 4.78758 4.29565 4.78758 4.96875C4.78758 5.64185 4.22094 6.1875 3.52195 6.1875H3.51562C2.81664 6.1875 2.25 5.64185 2.25 4.96875Z" fill="currentColor"/>
<path fill-rule="evenodd" clip-rule="evenodd" d="M2.25 8.625C2.25 7.9519 2.81664 7.40625 3.51562 7.40625H3.52195C4.22094 7.40625 4.78758 7.9519 4.78758 8.625C4.78758 9.2981 4.22094 9.84375 3.52195 9.84375H3.51562C2.81664 9.84375 2.25 9.2981 2.25 8.625Z" fill="currentColor"/>
<path fill-rule="evenodd" clip-rule="evenodd" d="M2.25 12.2812C2.25 11.6082 2.81664 11.0625 3.51562 11.0625H3.52195C4.22094 11.0625 4.78758 11.6082 4.78758 12.2812C4.78758 12.9543 4.22094 13.5 3.52195 13.5H3.51562C2.81664 13.5 2.25 12.9543 2.25 12.2812Z" fill="currentColor"/>
</g>
</g>
</svg>
