<svg width="25" height="24" viewBox="0 0 25 24" class="text-primary-600 focus:outline-none" xmlns="http://www.w3.org/2000/svg">
<g id="Icons/progress_activity">
<path id="progress_activity" d="M12.5 22C11.1333 22 9.84167 21.7375 8.625 21.2125C7.40833 20.6875 6.34583 19.9708 5.4375 19.0625C4.52917 18.1542 3.8125 17.0917 3.2875 15.875C2.7625 14.6583 2.5 13.3667 2.5 12C2.5 10.6167 2.7625 9.32083 3.2875 8.1125C3.8125 6.90417 4.52917 5.84583 5.4375 4.9375C6.34583 4.02917 7.40833 3.3125 8.625 2.7875C9.84167 2.2625 11.1333 2 12.5 2C12.7833 2 13.0208 2.09583 13.2125 2.2875C13.4042 2.47917 13.5 2.71667 13.5 3C13.5 3.28333 13.4042 3.52083 13.2125 3.7125C13.0208 3.90417 12.7833 4 12.5 4C10.2833 4 8.39583 4.77917 6.8375 6.3375C5.27917 7.89583 4.5 9.78333 4.5 12C4.5 14.2167 5.27917 16.1042 6.8375 17.6625C8.39583 19.2208 10.2833 20 12.5 20C14.7167 20 16.6042 19.2208 18.1625 17.6625C19.7208 16.1042 20.5 14.2167 20.5 12C20.5 11.7167 20.5958 11.4792 20.7875 11.2875C20.9792 11.0958 21.2167 11 21.5 11C21.7833 11 22.0208 11.0958 22.2125 11.2875C22.4042 11.4792 22.5 11.7167 22.5 12C22.5 13.3667 22.2375 14.6583 21.7125 15.875C21.1875 17.0917 20.4708 18.1542 19.5625 19.0625C18.6542 19.9708 17.5958 20.6875 16.3875 21.2125C15.1792 21.7375 13.8833 22 12.5 22Z" fill="#7646FF"/>
</g>
</svg>
