<svg width="14" height="12" class="text-300 focus:outline-none" viewBox="0 0 14 12" xmlns="http://www.w3.org/2000/svg">
<path fill-rule="evenodd" clip-rule="evenodd" d="M13.4663 1.19984C13.1997 0.866504 12.7997 0.666504 12.333 0.666504H1.86634C1.46634 0.666504 1.06634 0.866504 0.733008 1.19984C0.399674 1.53317 0.333008 1.93317 0.333008 2.39984V9.8665C0.333008 10.3332 0.466341 10.7332 0.799675 11.0665C1.13301 11.3998 1.46634 11.5998 1.93301 11.5998H12.3997C12.7997 11.5998 13.1997 11.3998 13.533 11.0665C13.7997 10.7332 13.9997 10.3332 13.9997 9.8665V2.39984C13.933 1.93317 13.7997 1.53317 13.4663 1.19984ZM7.39967 6.2665C7.33301 6.33317 7.26634 6.33317 7.19967 6.33317C7.13301 6.33317 7.06634 6.33317 6.99967 6.2665L2.06634 1.93317H12.4663L7.39967 6.2665ZM12.7997 9.79984C12.7997 9.93317 12.733 9.99984 12.6663 10.0665C12.5997 10.1332 12.533 10.1998 12.3997 10.1998H1.93301C1.79967 10.1998 1.73301 10.1332 1.66634 10.0665C1.59967 9.99984 1.53301 9.8665 1.53301 9.79984V3.33317L6.19967 7.2665C6.73301 7.73317 7.53301 7.73317 8.06634 7.2665L12.733 3.39984L12.7997 9.6665V9.79984Z" fill="currentColor" />
</svg>
