<svg width="19" height="18" viewBox="0 0 19 18" xmlns="http://www.w3.org/2000/svg">
<g id="Icons/media" clip-path="url(#clip0_785_1470)">
<g id="Vector">
<path d="M14.658 15.825C14.658 16.275 14.283 16.575 13.908 16.575H1.90801C1.45801 16.575 1.15801 16.425 0.783008 16.125C0.483008 15.825 0.333008 15.45 0.333008 15V6C0.333008 5.55 0.708008 5.25 1.08301 5.25C1.45801 5.25 1.83301 5.625 1.83301 6V14.25C1.83301 14.625 2.13301 15 2.58301 15H13.833C14.283 15.075 14.658 15.375 14.658 15.825Z" fill="currentColor"/>
<path d="M17.658 2.925C17.208 2.475 16.683 2.25 16.083 2.25H11.133L9.93301 1.05C9.78301 0.9 9.55801 0.75 9.25801 0.75H5.58301C4.98301 0.75 4.45801 0.975 4.00801 1.425C3.55801 1.875 3.33301 2.4 3.33301 3V11.25C3.33301 11.85 3.55801 12.375 4.00801 12.825C4.45801 13.275 4.98301 13.5 5.58301 13.5H16.083C16.683 13.5 17.208 13.275 17.658 12.825C18.108 12.375 18.333 11.85 18.333 11.25V4.5C18.333 3.9 18.108 3.375 17.658 2.925ZM16.833 11.25C16.833 11.475 16.758 11.625 16.608 11.775C16.458 11.925 16.308 12 16.083 12H5.58301C5.35801 12 5.20801 11.925 5.05801 11.775C4.90801 11.625 4.83301 11.475 4.83301 11.25V3C4.83301 2.775 4.90801 2.625 5.05801 2.475C5.20801 2.325 5.35801 2.25 5.58301 2.25H9.03301L10.233 3.45C10.383 3.6 10.608 3.75 10.908 3.75H16.083C16.308 3.75 16.458 3.825 16.608 3.975C16.758 4.125 16.833 4.275 16.833 4.5V11.25Z" fill="currentColor"/>
<path d="M14.958 9L12.858 5.625C12.633 5.4 12.333 5.25 11.958 5.25C11.658 5.25 11.358 5.4 11.133 5.7L10.233 6.9L9.93301 6.45C9.78301 6.15 9.48301 6 9.18301 6C8.80801 6 8.50801 6.225 8.35801 6.45L6.78301 8.925C6.55801 9.225 6.48301 9.6 6.63301 9.9C6.78301 10.275 7.15801 10.5 7.53301 10.5H14.058C14.433 10.5 14.733 10.35 14.883 10.05C15.108 9.75 15.108 9.375 14.958 9ZM8.50801 9L9.18301 7.875L9.48301 8.25C9.85801 8.775 10.758 8.775 11.133 8.25L12.033 7.125L13.233 9H8.50801Z" fill="currentColor"/>
</g>
</g>
<defs>
<clipPath id="clip0_785_1470">
<rect width="18" height="18" fill="currentColor" transform="translate(0.333008)"/>
</clipPath>
</defs>
</svg>
