<svg width="16" height="16" viewBox="0 0 16 16" xmlns="http://www.w3.org/2000/svg">
    <g id="Icons/placeholder">
        <path id="accessibility" d="M8 3.99992C7.63333 3.99992 7.31944 3.86936 7.05833 3.60825C6.79722 3.34714 6.66667 3.03325 6.66667 2.66659C6.66667 2.29992 6.79722 1.98603 7.05833 1.72492C7.31944 1.46381 7.63333 1.33325 8 1.33325C8.36667 1.33325 8.68056 1.46381 8.94167 1.72492C9.20278 1.98603 9.33333 2.29992 9.33333 2.66659C9.33333 3.03325 9.20278 3.34714 8.94167 3.60825C8.68056 3.86936 8.36667 3.99992 8 3.99992ZM6.66667 14.6666C6.29848 14.6666 6 14.3681 6 13.9999V5.99992H2.66667C2.29848 5.99992 2 5.70144 2 5.33325C2 4.96506 2.29848 4.66659 2.66667 4.66659H13.3333C13.7015 4.66659 14 4.96506 14 5.33325C14 5.70144 13.7015 5.99992 13.3333 5.99992H10V13.9999C10 14.3681 9.70152 14.6666 9.33333 14.6666C8.96514 14.6666 8.66667 14.3681 8.66667 13.9999V10.6666H7.33333V13.9999C7.33333 14.3681 7.03486 14.6666 6.66667 14.6666Z" fill="currentColor"/>
    </g>
</svg>
