<svg width="16" height="16" viewBox="0 0 16 16" xmlns="http://www.w3.org/2000/svg">
    <g id="Icons/search">
        <path id="Vector" d="M14.7987 13.5334L12.132 10.8667C12.8654 9.86671 13.332 8.66671 13.332 7.33337C13.332 4.06671 10.6654 1.33337 7.33203 1.33337C4.06536 1.33337 1.33203 4.00004 1.33203 7.33337C1.33203 10.6 3.9987 13.3334 7.33203 13.3334C8.86536 13.3334 10.1987 12.7334 11.2654 11.8667L13.8654 14.4667C13.9987 14.6 14.132 14.6667 14.332 14.6667C14.4654 14.6667 14.6654 14.6 14.7987 14.4667C14.932 14.3334 14.9987 14.2 14.9987 14C14.9987 13.8 14.8654 13.6667 14.7987 13.5334ZM7.33203 12C4.73203 12 2.66536 9.86671 2.66536 7.33337C2.66536 4.80004 4.7987 2.66671 7.33203 2.66671C9.86537 2.66671 11.9987 4.80004 11.9987 7.33337C11.9987 9.86671 9.93203 12 7.33203 12Z" fill="currentColor"/>
    </g>
</svg>
